<?xml version="1.0" standalone="no"?>
<!DOCTYPE svg PUBLIC "-//W3C//DTD SVG 20010904//EN"
 "http://www.w3.org/TR/2001/REC-SVG-20010904/DTD/svg10.dtd">
<svg version="1.0" xmlns="http://www.w3.org/2000/svg"
 width="400.000000pt" height="400.000000pt" viewBox="0 0 400.000000 400.000000"
 preserveAspectRatio="xMidYMid meet">
<metadata>
Created by potrace 1.16, written by Peter Selinger 2001-2019
</metadata>
<g transform="translate(0.000000,400.000000) scale(0.100000,-0.100000)"
fill="#000000" stroke="none">
<path d="M0 2000 l0 -2000 2000 0 2000 0 0 2000 0 2000 -2000 0 -2000 0 0
-2000z m1617 1035 c13 -9 28 -33 34 -54 19 -64 -2 -88 -143 -170 -124 -71
-156 -81 -201 -60 -50 23 -64 111 -24 149 40 39 249 149 282 150 17 0 40 -7
52 -15z m514 -300 c28 -14 78 -43 112 -64 34 -20 69 -41 77 -45 8 -4 24 -12
35 -19 11 -7 66 -39 123 -72 56 -33 126 -74 155 -92 29 -17 64 -38 80 -47 110
-60 259 -151 282 -172 15 -14 33 -23 41 -20 7 3 19 0 26 -7 25 -23 77 -57 87
-57 6 0 7 -7 4 -17 -4 -10 -2 -14 4 -10 6 4 18 -2 27 -12 14 -16 16 -25 7 -58
-6 -21 -20 -45 -32 -53 -12 -8 -27 -20 -33 -25 -10 -9 -62 -35 -76 -38 -3 0
-14 -9 -25 -19 -10 -10 -25 -16 -33 -13 -7 2 -10 0 -7 -5 3 -6 -1 -10 -9 -10
-9 0 -16 -4 -16 -10 0 -5 -4 -10 -9 -10 -6 0 -30 -13 -54 -30 -25 -16 -47 -30
-50 -30 -3 0 -53 -29 -112 -65 -59 -36 -110 -65 -113 -65 -3 0 -37 -20 -76
-44 -62 -38 -380 -224 -476 -279 -19 -11 -47 -27 -62 -36 -15 -9 -71 -41 -125
-72 -54 -31 -154 -89 -223 -130 -267 -155 -274 -159 -310 -159 -40 0 -75 26
-91 67 -10 27 -13 575 -3 635 9 51 34 73 159 141 95 51 112 57 154 54 38 -3
59 -13 100 -45 l52 -42 -24 -22 c-13 -13 -54 -41 -91 -63 -37 -22 -88 -52
-112 -68 l-45 -27 2 -175 c1 -96 5 -175 10 -175 4 0 61 31 126 68 108 62 245
140 333 190 19 10 105 60 190 109 85 49 202 116 260 149 57 32 112 64 122 69
142 82 245 139 298 166 36 19 68 38 71 43 4 5 12 5 19 1 8 -5 11 -4 6 3 -3 6
2 16 11 21 17 10 17 12 -2 26 -16 13 -116 71 -332 195 -254 145 -478 270 -485
270 -9 0 -78 -36 -133 -70 -73 -44 -523 -305 -548 -318 -34 -17 -87 -9 -110
16 -55 61 -35 128 53 178 30 17 205 117 389 223 184 105 338 191 343 191 5 0
31 -11 59 -25z"/>
</g>
</svg>
