<?xml version="1.0" standalone="no"?>
<!DOCTYPE svg PUBLIC "-//W3C//DTD SVG 20010904//EN"
 "http://www.w3.org/TR/2001/REC-SVG-20010904/DTD/svg10.dtd">
<svg version="1.0" xmlns="http://www.w3.org/2000/svg"
 width="512.000000pt" height="512.000000pt" viewBox="0 0 512.000000 512.000000"
 preserveAspectRatio="xMidYMid meet">

<g transform="translate(0.000000,512.000000) scale(0.100000,-0.100000)"
fill="#000000" stroke="none">
<path d="M0 2560 l0 -2560 2560 0 2560 0 0 2560 0 2560 -2560 0 -2560 0 0
-2560z m1477 268 c-3 -7 -5 -2 -5 12 0 14 2 19 5 13 2 -7 2 -19 0 -25z m385
-491 c-8 -9 16 -27 104 -77 62 -36 114 -69 114 -74 0 -4 7 -6 15 -2 37 14 6
-7 -112 -75 -71 -40 -139 -80 -153 -88 -13 -9 -21 -11 -18 -5 7 11 5 15 -76
132 -27 39 -45 76 -41 82 4 6 -7 4 -24 -5 -28 -14 -30 -18 -17 -30 8 -8 38
-56 66 -106 40 -68 56 -89 69 -85 12 5 11 2 -3 -9 -11 -8 -25 -15 -30 -15 -6
0 -4 5 4 11 13 9 13 10 0 6 -13 -3 -15 -42 -18 -261 l-3 -257 31 16 c16 8 53
29 81 45 28 17 55 27 61 24 7 -5 8 -2 3 6 -6 10 -4 12 9 7 11 -5 15 -3 10 5
-5 8 -2 9 9 5 9 -3 19 -1 23 5 4 7 3 8 -4 4 -7 -4 -12 -5 -12 -2 0 3 14 12 30
21 17 9 29 12 28 8 -2 -4 11 -28 28 -53 17 -25 45 -71 63 -102 36 -64 34 -62
62 -48 10 6 19 9 19 6 0 -10 -112 -66 -121 -61 -5 4 -8 2 -7 -4 5 -18 -392
-243 -438 -248 -51 -6 -98 16 -124 60 -19 30 -20 53 -20 465 0 460 0 462 48
506 12 10 26 15 33 10 8 -5 10 -3 4 6 -6 10 -4 12 9 7 10 -4 15 -3 11 3 -7 12
32 33 47 24 6 -4 8 -3 5 4 -8 12 119 86 133 77 6 -4 9 -2 8 4 -2 6 20 24 47
40 59 34 60 35 47 18z m198 -682 c0 -2 -10 -9 -22 -15 -22 -11 -22 -10 -4 4
21 17 26 19 26 11z"/>
<path d="M1820 2310 c-9 -6 -10 -10 -3 -10 6 0 15 5 18 10 8 12 4 12 -15 0z"/>
<path d="M2055 2170 c-3 -6 1 -7 9 -4 18 7 21 14 7 14 -6 0 -13 -4 -16 -10z"/>
<path d="M2008 2144 c-38 -20 -36 -28 2 -9 17 9 30 18 30 20 0 7 -1 6 -32 -11z"/>
<path d="M1938 2104 c-38 -20 -36 -28 2 -9 17 9 30 18 30 20 0 7 -1 6 -32 -11z"/>
<path d="M1874 2064 c-18 -14 -18 -15 4 -4 12 6 22 13 22 15 0 8 -5 6 -26 -11z"/>
<path d="M1830 2040 c-9 -6 -10 -10 -3 -10 6 0 15 5 18 10 8 12 4 12 -15 0z"/>
<path d="M2084 1384 c-18 -14 -18 -15 4 -4 12 6 22 13 22 15 0 8 -5 6 -26 -11z"/>
</g>
</svg>
